<?xml version="1.0" encoding="UTF-8"?>
<svg version="1.1" xmlns="http://www.w3.org/2000/svg" width="512" height="512">
<path d="M0 0 C4.85460491 3.63134273 9.01902216 7.98474778 13.26765442 12.29135132 C14.26876469 13.29552931 15.27047569 14.29910871 16.27275085 15.30212402 C18.35982224 17.3937668 20.44193096 19.49017614 22.52009583 21.59066772 C25.16347429 24.26232523 27.81544696 26.92523509 30.47076607 29.58502007 C33.03121562 32.1506628 35.58699402 34.72093969 38.14265442 37.29135132 C38.61971958 37.7702972 39.09678474 38.24924309 39.58830643 38.74270248 C47.0851484 46.27775977 54.11345959 53.79419137 60.29579163 62.445755 C69.85964259 75.49985995 81.84157845 91.28425788 98.63511276 94.34865856 C111.40012831 96.18793959 124.34505824 95.6702766 137.18074036 95.00985718 C138.27024302 94.95399114 138.27024302 94.95399114 139.38175583 94.8969965 C142.84123459 94.70901203 146.28676382 94.47538862 149.73609924 94.14964294 C150.95887573 94.05138718 152.18165222 93.95313141 153.44148254 93.85189819 C154.50902771 93.74696045 155.57657288 93.64202271 156.6764679 93.53390503 C159.82382401 93.95805448 161.34847626 94.76061725 163.51916444 97.0767864 C165.9143101 101.27810868 165.24773003 106.45882501 165.20053101 111.15342712 C165.21117259 113.03607778 165.21117259 113.03607778 165.22202915 114.95676178 C165.24097064 118.4382655 165.22870784 121.91906749 165.21130621 125.40055358 C165.19794516 129.15589803 165.21336465 132.91113894 165.22512817 136.66647339 C165.24351813 144.02195316 165.23498375 151.37716749 165.21703995 158.73263902 C165.20302174 164.70933578 165.19911946 170.68596042 165.20248222 176.66267204 C165.20319839 177.93797738 165.20319839 177.93797738 165.20392902 179.23904647 C165.20495533 180.96613489 165.20601069 182.69322329 165.20709478 184.42031168 C165.21566445 199.69565605 165.19897765 214.97087214 165.16926575 230.2461853 C165.14042261 245.07501615 165.13334684 259.90366222 165.14875793 274.73251343 C165.16551059 290.87438554 165.16956427 307.0161699 165.15204757 323.15804428 C165.15020315 324.87851996 165.14836842 326.59899566 165.1465435 328.31947136 C165.14563141 329.16601542 165.14471932 330.01255949 165.14377959 330.8847564 C165.13816876 336.85615982 165.14148642 342.82752048 165.14808846 348.79892159 C165.15581168 356.07330405 165.14910553 363.34750448 165.12391341 370.6218502 C165.1113953 374.33478498 165.10529958 378.04743603 165.11645508 381.7603817 C165.12830754 385.78114704 165.10928334 389.80116331 165.08700562 393.82188416 C165.09524638 395.00134332 165.10348715 396.18080248 165.11197764 397.39600283 C165.10092995 398.47028597 165.08988226 399.54456911 165.07849979 400.65140629 C165.07730831 401.57977017 165.07611683 402.50813406 165.07488924 403.46463019 C164.41378816 406.70014709 163.11477192 407.88047809 160.57234192 409.92416382 C157.27499546 411.0232793 154.84275447 411.03810942 151.37312317 411.02182007 C150.16462708 411.01859741 148.95613098 411.01537476 147.71101379 411.01205444 C146.44837708 411.00367554 145.18574036 410.99529663 143.88484192 410.98666382 C141.9734845 410.97989624 141.9734845 410.97989624 140.02351379 410.97299194 C136.87307628 410.96119255 133.72273243 410.94472979 130.57234192 410.92416382 C130.58122437 412.03028015 130.59010681 413.13639648 130.59925842 414.27603149 C130.68030111 424.69375851 130.74028661 435.11142167 130.77959061 445.52939224 C130.80047646 450.8855629 130.82881256 456.24147933 130.87409973 461.59750366 C130.91752153 466.76517998 130.94147151 471.93261159 130.95185089 477.10045624 C130.95924883 479.07327884 130.97369511 481.04608787 130.99526215 483.01880646 C131.02424735 485.77954685 131.02829997 488.53927262 131.02644348 491.30014038 C131.04082458 492.11797501 131.05520569 492.93580963 131.07002258 493.77842712 C131.04569294 497.11619992 130.96403628 499.37732236 128.98951143 502.13394117 C125.68581845 504.58074764 123.5098242 504.42547516 119.41661167 504.42752838 C118.69157874 504.43334214 117.9665458 504.43915591 117.21954218 504.44514585 C114.77679538 504.45980703 112.33504384 504.44583272 109.89230347 504.43209839 C108.12857165 504.43670497 106.36484366 504.44305625 104.60112375 504.45100737 C99.74388012 504.46775868 94.88694945 504.45942789 90.02970445 504.44706249 C84.79496311 504.43803739 79.56027679 504.45196949 74.32554626 504.46298218 C64.06397308 504.48080254 53.80251669 504.4769108 43.54093886 504.46533161 C35.19826707 504.45630695 26.85562807 504.45506912 18.5129528 504.45942688 C17.32661819 504.46003981 16.14028358 504.46065274 14.91799943 504.46128425 C12.50804706 504.46256314 10.0980947 504.46385999 7.68814235 504.46517462 C-14.93276021 504.47659186 -37.55359804 504.46345109 -60.17448998 504.44197315 C-79.57572502 504.4241219 -98.97686426 504.4271878 -118.37809753 504.44564819 C-140.90276481 504.46707051 -163.42737518 504.47547123 -185.95205122 504.46319914 C-188.35600983 504.46192495 -190.75996845 504.46066747 -193.16392708 504.45942688 C-194.93811822 504.45850123 -194.93811822 504.45850123 -196.74815161 504.45755687 C-205.07424081 504.45410651 -213.40029388 504.45992601 -221.72637749 504.46934509 C-231.88330869 504.48058247 -242.04011629 504.4774893 -252.1970334 504.45622212 C-257.37734748 504.44573196 -262.55745576 504.4415549 -267.73776817 504.45481873 C-272.48600087 504.46679186 -277.2338382 504.46009917 -281.98203535 504.43890852 C-283.69411027 504.43446298 -285.40621901 504.4366623 -287.11827194 504.44641167 C-305.21048478 504.54148384 -319.58231305 500.15929901 -333.03703308 487.52963257 C-344.10701651 475.46479768 -348.05544718 461.39913185 -347.93559265 445.29316711 C-347.94183261 443.98378963 -347.94807258 442.67441214 -347.95450163 441.32535654 C-347.97104598 437.72924875 -347.96301757 434.13357099 -347.95055676 430.53746259 C-347.94144687 426.64441815 -347.95550514 422.75144386 -347.96647644 418.8584137 C-347.98420284 411.24738311 -347.98044818 403.63651087 -347.96882588 396.02547424 C-347.95976924 389.83689626 -347.95857717 383.64836246 -347.96292114 377.45977974 C-347.96353407 376.57689019 -347.96414701 375.69400063 -347.96477851 374.78435685 C-347.96605749 372.99044556 -347.96735435 371.19653427 -347.96866888 369.40262301 C-347.98005728 352.60695018 -347.96698799 335.81136489 -347.94546741 319.01570643 C-347.9275949 304.6217858 -347.93070517 290.22799423 -347.94914246 275.83407593 C-347.97057461 259.09438138 -347.97896207 242.3547634 -347.9666934 225.61505705 C-347.96541928 223.82828209 -347.9641618 222.04150712 -347.96292114 220.25473213 C-347.96230404 219.37574023 -347.96168694 218.49674833 -347.96105114 217.59112031 C-347.9576055 211.41348523 -347.96340952 205.23589894 -347.97283936 199.05827141 C-347.98408668 191.52484428 -347.98096193 183.99158376 -347.95971638 176.45817559 C-347.94924305 172.61862521 -347.94502015 168.77935207 -347.95831299 164.93980408 C-347.97253366 160.76902297 -347.9554925 156.59893476 -347.93559265 152.42817688 C-347.94451554 151.22689508 -347.95343843 150.02561328 -347.9626317 148.787929 C-347.82796726 134.19233215 -342.46378386 120.57050108 -332.17765808 110.11166382 C-322.59174635 101.0180016 -310.05486212 93.86030687 -296.47195625 93.9419241 C-295.42932058 94.00820539 -294.38668491 94.07448668 -293.31245422 94.14277649 C-292.10627945 94.21405951 -290.90010468 94.28534252 -289.65737915 94.35878563 C-288.34552139 94.4408658 -287.03366364 94.52294598 -285.68205261 94.60751343 C-282.78997815 94.77383835 -279.89748531 94.93187508 -277.00483704 95.08787537 C-276.24373855 95.12904401 -275.48264006 95.17021266 -274.69847798 95.21262884 C-258.66127678 96.06258263 -242.60799259 96.52440152 -226.55265808 96.86166382 C-225.67678795 96.88032533 -224.80091782 96.89898684 -223.89850616 96.91821384 C-167.39617802 99.73497009 -167.39617802 99.73497009 -118.98680687 75.08251286 C-109.61492165 65.5012414 -101.68110469 54.46953464 -95.06437683 42.84359741 C-92.34360508 38.12392765 -89.62101246 34.83291239 -85.36326599 31.46289062 C-82.14684165 28.90596867 -79.40871482 25.89132235 -76.57609558 22.92416382 C-75.29969167 21.6107498 -74.02231668 20.29827894 -72.74406433 18.98666382 C-70.7739675 16.96133976 -68.80978945 14.93165579 -66.86174011 12.88510132 C-48.14909811 -6.73169313 -24.57373687 -16.50633064 0 0 Z " fill="#010000" transform="translate(347.4276580810547,8.075836181640625)"/>
<path d="M0 0 C4.455 2.97 4.455 2.97 9 6 C10.99435295 7.13134203 13.01223457 8.2234572 15.0625 9.25 C16.00222656 9.72953125 16.94195312 10.2090625 17.91015625 10.703125 C24.10401935 13.30282481 29.77656282 14.24959522 36.46559143 14.26171303 C37.17549726 14.26570909 37.8854031 14.26970515 38.61682123 14.27382231 C40.98363308 14.28474719 43.35020921 14.28160233 45.71704102 14.2784729 C47.43574028 14.28347856 49.15443719 14.28935515 50.8731308 14.29602563 C55.58672124 14.31180687 60.30025204 14.31525529 65.01386571 14.31667423 C70.10036108 14.32037154 75.18682387 14.33552869 80.27330017 14.34928894 C89.08291278 14.37155515 97.89251378 14.38657229 106.70214844 14.39665604 C119.43937414 14.4112459 132.17655941 14.43678362 144.91376138 14.46498732 C165.57937839 14.5104497 186.24500122 14.54706681 206.91064453 14.578125 C226.98454816 14.6083128 247.05843755 14.64266415 267.13232422 14.68261719 C268.3698256 14.68507874 269.60732697 14.68754028 270.88232839 14.69007643 C277.09055302 14.70245107 283.29877749 14.7149076 289.50700188 14.72740483 C341.00464861 14.83096434 392.50231231 14.91962495 444 15 C444 37.77 444 60.54 444 84 C434.62207031 84.02578125 425.24414062 84.0515625 415.58203125 84.078125 C409.62563042 84.10330417 403.66926152 84.12948376 397.71289062 84.16015625 C388.26766208 84.20860991 378.82253974 84.25308733 369.37719727 84.27099609 C362.49651838 84.284061 355.6160569 84.31114789 348.73550051 84.35461307 C345.0970541 84.37712002 341.45887475 84.39291723 337.82035255 84.39188385 C333.74427095 84.39099029 329.66896851 84.42142213 325.59301758 84.45410156 C324.40545868 84.4490712 323.21789978 84.44404083 321.99435425 84.43885803 C304.43204994 84.65536897 288.66305754 92.00238907 276 104 C262.57815539 117.75799099 256.45072571 135.81218329 256.50732422 154.76513672 C257.07664417 172.47770591 265.58408374 189.84635501 278.171875 202.1171875 C282.94433394 206.23303296 288.1302119 209.39222604 293.6875 212.3125 C294.285625 212.63814941 294.88375 212.96379883 295.5 213.29931641 C310.48545114 220.75713797 327.91898562 219.47673486 344.16590381 219.50611091 C347.68529946 219.51559861 351.20457334 219.5418088 354.72389221 219.56611633 C361.36386193 219.60950286 368.00380764 219.63821965 374.64387518 219.66143972 C382.95862488 219.69131929 391.27324068 219.74118405 399.58789062 219.79101562 C414.39188587 219.87965249 429.19581228 219.93846618 444 220 C444 245.41 444 270.82 444 297 C391.59049323 297.11024083 339.18109587 297.20255642 286.77150632 297.25532665 C280.583185 297.26158013 274.39486392 297.26805175 268.20654297 297.2746582 C266.97456679 297.27596976 265.74259062 297.27728131 264.47328183 297.2786326 C244.52888295 297.30038536 224.58455617 297.33980623 204.64020005 297.38576398 C184.173362 297.43253213 163.70656171 297.46029617 143.23967242 297.47044247 C130.61188627 297.47730085 117.98430394 297.49895756 105.35658053 297.53958233 C96.69566199 297.56602506 88.03484872 297.57399749 79.37389275 297.56750689 C74.37795898 297.56430642 69.38238122 297.56919053 64.38651085 297.59602737 C59.80774798 297.62044342 55.22957895 297.62153358 50.65078816 297.60449447 C48.99916039 297.60239005 47.34749485 297.60866181 45.69594088 297.62441591 C32.76565948 297.74053074 22.14450639 295.47884442 11.96484375 286.9375 C5.55998935 280.62177876 0.72852351 271.77996876 -0.2421875 262.74609375 C-0.25 260.8125 -0.25 260.8125 0 258 C0.94875 258.66 1.8975 259.32 2.875 260 C5.66238955 262.17968457 5.66238955 262.17968457 8 262 C9.82842605 259.36329284 9.82842605 259.36329284 11.625 256.125 C12.25664062 255.03445313 12.88828125 253.94390625 13.5390625 252.8203125 C15.15331938 250.23339315 15.15331938 250.23339315 15 248 C13.47585287 246.10923628 13.47585287 246.10923628 11.4375 244.25 C10.77621094 243.59515625 10.11492188 242.9403125 9.43359375 242.265625 C6.363103 240.31456801 6.363103 240.31456801 0 243 C0 177.66 0 112.32 0 45 C3.96 46.98 3.96 46.98 8 49 C9.19982444 47.07010782 10.38452818 45.13080772 11.5625 43.1875 C12.22378906 42.10855469 12.88507812 41.02960938 13.56640625 39.91796875 C15.40375227 37.04100655 15.40375227 37.04100655 14 34 C12.51615177 32.3033187 12.51615177 32.3033187 10.6875 30.75 C10.09324219 30.20859375 9.49898437 29.6671875 8.88671875 29.109375 C7.06575316 27.77892976 7.06575316 27.77892976 4.95703125 28.265625 C3.98830078 28.62914062 3.98830078 28.62914062 3 29 C2.01 29.33 1.02 29.66 0 30 C0 20.1 0 10.2 0 0 Z " fill="#8E5335" transform="translate(17,198)"/>
<path d="M0 0 C8.06668073 4.21618211 14.35787813 11.33227543 20.72265625 17.71484375 C21.49379257 18.48502335 22.26492889 19.25520294 23.05943298 20.04872131 C24.67830153 21.66691373 26.29592551 23.28635212 27.91235352 24.90698242 C30.36818718 27.36817232 32.82931365 29.82397809 35.29101562 32.27929688 C36.87271653 33.86165867 38.45410717 35.44433067 40.03515625 37.02734375 C40.76138687 37.75155014 41.48761749 38.47575653 42.2358551 39.22190857 C45.41440405 42.41488629 48.51030415 45.62265058 51.42749023 49.05688477 C56.53145788 54.96820623 62.15502939 60.38961793 67.69119263 65.89135742 C69.78801216 67.97527833 71.88157366 70.06242509 73.97436523 72.15039062 C78.41759482 76.58225694 82.86474762 81.0101733 87.3125 85.4375 C92.47128164 90.57259066 97.62839252 95.70933651 102.78128052 100.8503418 C104.83251449 102.89514763 106.88676291 104.93689064 108.94116211 106.97851562 C114.41705213 112.43320558 119.84148989 117.85926516 124.84805298 123.75488281 C127.39836338 126.68513297 130.19188314 129.36150833 132.98046875 132.0625 C134.21593336 133.27559517 135.4509462 134.48915059 136.68554688 135.703125 C138.59659925 137.57706241 140.51051343 139.44769065 142.43237305 141.31054688 C144.31190093 143.13526617 146.17819543 144.97272028 148.04296875 146.8125 C148.8977607 147.63161865 148.8977607 147.63161865 149.76982117 148.46728516 C154.54317055 153.20929827 157.79029162 158.21781523 158.87890625 164.9296875 C158.86892363 173.57463926 157.86171109 180.73913445 151.64453125 187.16015625 C150 188.5625 150 188.5625 147.3125 190.4375 C147.16554688 189.51517578 147.16554688 189.51517578 147.015625 188.57421875 C146.86609375 187.76597656 146.7165625 186.95773438 146.5625 186.125 C146.35367188 184.92423828 146.35367188 184.92423828 146.140625 183.69921875 C145.04713542 180.71275429 144.13840899 179.90550467 141.3125 178.4375 C138.66347425 178.06832726 136.21690473 177.83781112 133.5625 177.75 C132.86511719 177.71583984 132.16773438 177.68167969 131.44921875 177.64648438 C129.73752892 177.56441705 128.0250424 177.49927081 126.3125 177.4375 C126.02117187 176.6640625 125.72984375 175.890625 125.4296875 175.09375 C120.85695573 163.474985 114.4642658 153.52392182 102.75 148.125 C101.27844639 147.54287438 99.7996538 146.97853036 98.3125 146.4375 C97.24 146.025 96.1675 145.6125 95.0625 145.1875 C83.58917019 142.89283404 72.44287395 144.31083031 62.26171875 150.203125 C51.74312482 157.43376873 47.26978911 165.56563266 43.3125 177.4375 C28.4625 177.4375 13.6125 177.4375 -1.6875 177.4375 C0.53747525 172.98754949 2.75883995 170.83665309 6.3125 167.4375 C4.90405282 164.22225695 3.20905214 162.11566132 0.6875 159.6875 C0.05585938 159.07390625 -0.57578125 158.4603125 -1.2265625 157.828125 C-1.70867187 157.36921875 -2.19078125 156.9103125 -2.6875 156.4375 C-6.24303157 157.88040664 -7.70425003 159.56835414 -9.82331848 162.72383118 C-15.69971879 170.52323329 -21.91743799 177.26522844 -31.9013167 178.87130219 C-42.19773803 180.03981011 -52.61471665 179.6632257 -62.95157599 179.36398482 C-67.80499327 179.24400101 -72.65871045 179.23395689 -77.51338196 179.21150208 C-86.67696025 179.15279031 -95.8361554 178.99737534 -104.99781591 178.80586177 C-115.43999804 178.59238913 -125.88240625 178.48875448 -136.32623231 178.39364851 C-157.78242104 178.19583387 -179.23468287 177.8623425 -200.6875 177.4375 C-197.16986786 173.25782222 -193.59087061 169.21524668 -189.72705078 165.34765625 C-189.04275497 164.66073196 -189.04275497 164.66073196 -188.34463501 163.95993042 C-186.85983782 162.47078971 -185.37148111 160.98526972 -183.8828125 159.5 C-182.83423551 158.4507477 -181.78580685 157.40134713 -180.73751831 156.35180664 C-178.54879992 154.16162131 -176.35830252 151.97323552 -174.16650391 149.78613281 C-171.37720295 147.0025214 -168.59240731 144.21445294 -165.80894661 141.42500305 C-163.64701107 139.25942861 -161.48266806 137.09627279 -159.31762314 134.93380737 C-158.29078964 133.90763433 -157.26467996 132.88073639 -156.23935318 131.85305786 C-154.79757547 130.40869918 -153.35255938 128.96765358 -151.90673828 127.52734375 C-151.08988556 126.71128662 -150.27303284 125.89522949 -149.431427 125.05444336 C-147.26771596 122.99086469 -145.0777189 121.02316098 -142.81747437 119.06945801 C-138.84015017 115.61429525 -135.09747173 111.9759049 -131.38867188 108.23632812 C-130.70785049 107.55404648 -130.02702911 106.87176483 -129.32557678 106.16880798 C-127.86168396 104.7011378 -126.39894641 103.23231458 -124.93727112 101.76243591 C-122.61810487 99.43039308 -120.29573041 97.10158732 -117.97253418 94.77355957 C-113.04136569 89.83101714 -108.11414087 84.88455496 -103.1875 79.9375 C-97.47415872 74.20048484 -91.75917277 68.46512828 -86.03993225 62.73399353 C-83.76246126 60.45008482 -81.48804594 58.16316354 -79.21374512 55.87609863 C-77.80475586 54.46347368 -76.39562422 53.05099071 -74.98632812 51.63867188 C-74.36375626 51.01093369 -73.74118439 50.3831955 -73.0997467 49.73643494 C-69.34916004 45.98540527 -65.46655383 42.44999557 -61.45357132 38.98163986 C-59.48920668 37.26412499 -57.63334563 35.47404166 -55.81689453 33.60107422 C-54.84515793 32.60501663 -54.84515793 32.60501663 -53.85379028 31.58883667 C-53.18274261 30.89694244 -52.51169495 30.20504822 -51.8203125 29.4921875 C-50.34305622 27.98768373 -48.86517238 26.48379592 -47.38671875 24.98046875 C-45.0945187 22.64506595 -42.80639696 20.30620384 -40.52880859 17.95654297 C-38.30432338 15.66498304 -36.06384045 13.39008764 -33.8203125 11.1171875 C-33.15331329 10.42124481 -32.48631409 9.72530212 -31.79910278 9.00827026 C-22.90228642 0.06241751 -12.34465575 -4.8784722 0 0 Z " fill="#4297CF" transform="translate(330.6875,18.5625)"/>
<path d="M0 0 C1.00968043 -0.00128164 1.00968043 -0.00128164 2.03975844 -0.00258917 C4.29376502 -0.00423542 6.54769707 0.0012634 8.80169678 0.00672913 C10.41802977 0.00701121 12.03436289 0.00685285 13.6506958 0.00628662 C18.03875995 0.00599947 22.42679682 0.011883 26.81485462 0.01886058 C31.4006162 0.02510772 35.98637838 0.025699 40.57214355 0.02688599 C49.25601156 0.02999528 57.939867 0.03820327 66.62372947 0.04823548 C78.358188 0.06149795 90.09264997 0.06689977 101.82711411 0.07273769 C120.3157214 0.08214341 138.80430215 0.10206503 157.29290771 0.12025452 C157.29290771 33.78025452 157.29290771 67.44025452 157.29290771 102.12025452 C117.98401501 102.24116362 117.98401501 102.24116362 101.45697021 102.26673889 C90.06500171 102.28450977 78.67309999 102.30535193 67.28118896 102.34657288 C58.98292094 102.37658521 50.68470731 102.39585548 42.38638651 102.40252 C37.99728252 102.40641231 33.6083341 102.4154842 29.21928024 102.43744469 C25.07754454 102.45799737 20.93602663 102.46405091 16.79424477 102.45957756 C15.28430938 102.46039445 13.77436574 102.46624726 12.26447487 102.47787094 C-5.48164642 102.60764084 -20.00802653 99.79540996 -33.14459229 87.18275452 C-43.83584202 75.8072648 -48.13064574 62.41659911 -47.98443604 46.88587952 C-47.012155 33.68476801 -40.42881807 21.06126809 -30.70709229 12.12025452 C-21.3543251 5.18018903 -11.75997166 -0.0089908 0 0 Z " fill="#A25F3D" transform="translate(337.70709228515625,298.87974548339844)"/>
<path d="M0 0 C2.04836472 0.00747048 4.09673663 0.01315959 6.14511108 0.01715088 C11.50787466 0.03234364 16.87019738 0.07157019 22.23278809 0.1159668 C27.71632933 0.15705725 33.19994256 0.1751912 38.68359375 0.1953125 C49.42206753 0.23807098 60.1602157 0.30624458 70.8984375 0.390625 C70.49962718 0.84944345 70.10081686 1.30826189 69.68992138 1.78098392 C66.98546232 4.91055561 64.33745128 8.02300209 61.94067383 11.39819336 C51.9965961 24.99087738 40.08955728 40.85589332 22.66992188 44.09814453 C14.75750406 45.07620507 6.92029042 45.14278426 -1.0390625 44.890625 C-2.98672012 44.83054764 -2.98672012 44.83054764 -4.97372437 44.76925659 C-20.12072918 44.1417045 -36.26954764 43.41801815 -47.78125 32.1953125 C-49.1015625 30.390625 -49.1015625 30.390625 -49.5390625 27.140625 C-46.45313656 16.57726314 -38.55032693 8.834848 -29.37095642 3.358078 C-20.18676056 -1.17459135 -9.9723872 -0.10713078 0 0 Z " fill="#FBB42E" transform="translate(76.1015625,153.609375)"/>
<path d="M0 0 C8.87468202 4.28793559 15.59857942 11.21956326 19.625 20.1875 C22.31443188 29.2643326 21.75458205 39.39790366 18.00390625 48.1015625 C12.99738668 57.03671074 5.43952109 62.96297564 -4.2890625 66.19921875 C-13.30066115 67.76865447 -22.46850096 67.3740208 -30.375 62.5625 C-38.5235934 56.71782438 -45.52533121 48.7257339 -47.375 38.5625 C-48.29270975 27.51468645 -46.03452996 18.74234301 -39.3984375 9.82421875 C-29.56223966 -1.17029583 -13.89172996 -4.79936154 0 0 Z " fill="#020101" transform="translate(354.375,317.4375)"/>
<path d="M0 0 C1.2884935 -0.00029205 2.576987 -0.00058411 3.90452576 -0.00088501 C7.42058454 -0.00145657 10.93650562 0.01026572 14.45253253 0.02426291 C18.13339198 0.03680317 21.81425493 0.03794336 25.49513245 0.04031372 C32.45770879 0.04651883 39.420222 0.06291647 46.3827706 0.0830127 C54.31264014 0.10540193 62.24251277 0.11637272 70.17240608 0.12640357 C86.47768588 0.1472836 102.78290225 0.18244065 119.08813477 0.22705078 C119.08813477 0.88705078 119.08813477 1.54705078 119.08813477 2.22705078 C117.58422852 3.70751953 117.58422852 3.70751953 115.52563477 5.41455078 C108.43028087 11.07800934 108.43028087 11.07800934 103.08813477 18.22705078 C102.51259259 18.22759555 101.93705042 18.22814032 101.34406757 18.22870159 C87.28602766 18.24372313 73.22829339 18.28638553 59.17043018 18.35914135 C52.37188505 18.39367269 45.57354017 18.41913118 38.77490234 18.42260742 C32.2065103 18.42599219 25.63852806 18.45548555 19.0702877 18.50048256 C16.57187523 18.51341232 14.07340245 18.51778141 11.57496071 18.51320457 C-6.8174487 18.22089178 -6.8174487 18.22089178 -23.91186523 24.22705078 C-24.92367355 24.78148361 -25.93548187 25.33591644 -26.97795105 25.90715027 C-33.75724633 29.78231928 -40.35227275 35.10786581 -43.91186523 42.22705078 C-44.57186523 42.22705078 -45.23186523 42.22705078 -45.91186523 42.22705078 C-46.49725612 30.12897243 -42.94450048 21.57562851 -35.31811523 12.28564453 C-25.71031004 1.79410254 -13.51776886 -0.08038852 0 0 Z " fill="#F1AD2C" transform="translate(62.911865234375,118.77294921875)"/>
<path d="M0 0 C3.15187367 1.49589444 5.21665945 3.02154157 7.625 5.5625 C10.04521959 8.14015389 10.04521959 8.14015389 13 10 C11.67289741 12.94209835 10.23210009 15.01614431 7.95016479 17.29034424 C7.32476807 17.9184903 6.69937134 18.54663635 6.05502319 19.19381714 C5.02787704 20.21017746 5.02787704 20.21017746 3.97998047 21.24707031 C3.25792419 21.96941864 2.53586792 22.69176697 1.79193115 23.43600464 C-0.59493989 25.82148279 -2.9888162 28.19979939 -5.3828125 30.578125 C-7.03948779 32.23107002 -8.69572195 33.88445727 -10.35153198 35.53826904 C-14.71025917 39.88936088 -19.07495924 44.23441313 -23.44091797 48.57824707 C-27.89521505 53.01208371 -32.34385418 57.45158909 -36.79296875 61.890625 C-45.52310855 70.5993166 -54.25956694 79.30164008 -63 88 C-64.1065941 87.06122074 -65.21178799 86.12079084 -66.31640625 85.1796875 C-66.93201416 84.65616699 -67.54762207 84.13264648 -68.18188477 83.59326172 C-70.57236585 81.4984209 -72.78679163 79.28027529 -75 77 C-73.67958555 74.07742561 -72.25571935 72.00741791 -69.98812866 69.74761963 C-69.37114609 69.12788773 -68.75416351 68.50815582 -68.1184845 67.86964417 C-67.44307114 67.20142136 -66.76765778 66.53319855 -66.07177734 65.84472656 C-65.35947464 65.13213181 -64.64717194 64.41953705 -63.9132843 63.68534851 C-61.5588785 61.33233549 -59.19746875 58.9864849 -56.8359375 56.640625 C-55.20168245 55.01010025 -53.56786854 53.37913324 -51.93447876 51.7477417 C-47.63493527 47.45583324 -43.32941935 43.16996486 -39.02264404 38.88531494 C-34.62866977 34.51180178 -30.24035397 30.13261921 -25.8515625 25.75390625 C-17.23991236 17.16370375 -8.62194389 8.5798698 0 0 Z " fill="#010102" transform="translate(314,63)"/>
<path d="M0 0 C3.31115963 1.57599923 5.66702538 3.31174306 8.3125 5.875 C9.03050781 6.55304688 9.74851562 7.23109375 10.48828125 7.9296875 C12 10 12 10 11.83106995 11.871521 C10.76417803 14.60397095 9.2984797 16.06169409 7.21459961 18.12597656 C6.41384506 18.92650452 5.61309052 19.72703247 4.78807068 20.55181885 C3.91828079 21.40612488 3.04849091 22.26043091 2.15234375 23.140625 C1.2659169 24.02280701 0.37949005 24.90498901 -0.53379822 25.81390381 C-2.88763056 28.15378577 -5.24773754 30.48695398 -7.61114502 32.81713867 C-10.02288417 35.19814663 -12.42611479 37.58770853 -14.83007812 39.9765625 C-19.54558059 44.6589678 -24.26954156 49.33270728 -29 54 C-32.63303084 52.30413874 -34.94549046 50.26199512 -37.75 47.375 C-38.54921875 46.55773437 -39.3484375 45.74046875 -40.171875 44.8984375 C-40.77515625 44.27195313 -41.3784375 43.64546875 -42 43 C-37.43852453 37.52686034 -32.59258679 32.46045191 -27.5390625 27.44140625 C-26.74849457 26.65225327 -25.95792664 25.86310028 -25.1434021 25.05003357 C-22.63962374 22.55181339 -20.13237525 20.05710956 -17.625 17.5625 C-15.91773752 15.86025792 -14.21070391 14.15778627 -12.50390625 12.45507812 C-8.33858102 8.30072637 -4.17040781 4.14924919 0 0 Z " fill="#020304" transform="translate(340,88)"/>
<path d="M0 0 C0 21.45 0 42.9 0 65 C-5.61 65 -11.22 65 -17 65 C-17.39991241 58.31531027 -17.68773337 51.63776605 -17.87890625 44.94384766 C-17.95867158 42.67536033 -18.06734694 40.40767709 -18.20703125 38.14208984 C-19.3967601 18.32785575 -19.3967601 18.32785575 -13.40234375 10.8359375 C-3.27898661 0 -3.27898661 0 0 0 Z " fill="#F8B22E" transform="translate(495,217)"/>
<path d="M0 0 C5.00230198 2.45567552 8.49851535 5.9970307 11 11 C11.59381502 16.87000746 11.82644408 22.4873709 8.38671875 27.49609375 C4.48598295 31.7264692 0.24715878 34.2650772 -5.5625 34.5625 C-11.42620158 34.19854611 -15.26104673 31.83295074 -19.3125 27.5625 C-22.55212373 22.64307137 -23.52054858 18.93425385 -23 13 C-19.2505392 2.19273063 -10.58600037 -1.0780651 0 0 Z " fill="#E0E0E0" transform="translate(347,333)"/>
<path d="M0 0 C1.62109375 1.64453125 1.62109375 1.64453125 3.4375 3.8125 C5.54463676 6.31102718 7.65241398 8.7242056 10 11 C8.70665553 13.84898046 7.35207334 15.89179433 5.12670898 18.08447266 C4.54948593 18.65831696 3.97226288 19.23216125 3.37754822 19.82339478 C2.75666824 20.43081512 2.13578827 21.03823547 1.49609375 21.6640625 C0.85761002 22.29734467 0.21912628 22.93062683 -0.43870544 23.58309937 C-2.47527375 25.60187989 -4.51841075 27.61383729 -6.5625 29.625 C-8.60927118 31.64416725 -10.65457266 33.66476901 -12.69700623 35.68832397 C-13.96743566 36.94648149 -15.24052842 38.20195639 -16.51649475 39.45449829 C-19.64329284 42.43156495 -19.64329284 42.43156495 -22 46 C-25.68069887 44.46356148 -27.98775204 42.21849055 -30.75 39.375 C-31.54921875 38.55773437 -32.3484375 37.74046875 -33.171875 36.8984375 C-33.77515625 36.27195313 -34.3784375 35.64546875 -35 35 C-33.67365058 32.06254084 -32.2306634 29.97856521 -29.95898438 27.70019531 C-29.34494751 27.07985413 -28.73091064 26.45951294 -28.0982666 25.82037354 C-27.43677612 25.16293152 -26.77528564 24.5054895 -26.09375 23.828125 C-25.41324585 23.1457074 -24.7327417 22.46328979 -24.03161621 21.76019287 C-22.59498803 20.32220573 -21.15583915 18.88673308 -19.71435547 17.45361328 C-17.50123571 15.25122972 -15.29901528 13.03835067 -13.09765625 10.82421875 C-11.70116197 9.42904546 -10.30404773 8.03449238 -8.90625 6.640625 C-8.24475952 5.97508606 -7.58326904 5.30954712 -6.9017334 4.62384033 C-6.28769653 4.01610779 -5.67365967 3.40837524 -5.04101562 2.78222656 C-4.23065857 1.97425629 -4.23065857 1.97425629 -3.40393066 1.14996338 C-2 0 -2 0 0 0 Z " fill="#020404" transform="translate(379,122)"/>
<path d="M0 0 C5.61526108 2.83247683 10.57306516 7.35148042 13.20703125 13.11328125 C13.20703125 13.77328125 13.20703125 14.43328125 13.20703125 15.11328125 C-2.30296875 15.11328125 -17.81296875 15.11328125 -33.79296875 15.11328125 C-32.78008327 10.04885385 -31.54060216 7.46503789 -27.79296875 4.11328125 C-18.71733536 -1.82568587 -10.40916632 -3.84646952 0 0 Z " fill="#D94A3A" transform="translate(425.79296875,180.88671875)"/>
<path d="M0 0 C12.54 0 25.08 0 38 0 C38 5.61 38 11.22 38 17 C16.59855818 18.9439493 16.59855818 18.9439493 11.1640625 14.43359375 C8.39132454 11.55354411 6.24596009 8.29613396 4 5 C2.68343743 3.97802114 1.35539504 2.96988765 0 2 C0 1.34 0 0.68 0 0 Z " fill="#F2AE2D" transform="translate(457,119)"/>
<path d="M0 0 C5.94 0 11.88 0 18 0 C18 5.94 18 11.88 18 18 C12.06 18 6.12 18 0 18 C0 12.06 0 6.12 0 0 Z " fill="#0A0604" transform="translate(391,452)"/>
<path d="M0 0 C5.94 0 11.88 0 18 0 C18 5.94 18 11.88 18 18 C12.06 18 6.12 18 0 18 C0 12.06 0 6.12 0 0 Z " fill="#0A0604" transform="translate(218,452)"/>
<path d="M0 0 C5.94 0 11.88 0 18 0 C18 5.94 18 11.88 18 18 C12.06 18 6.12 18 0 18 C0 12.06 0 6.12 0 0 Z " fill="#0A0604" transform="translate(114,452)"/>
<path d="M0 0 C5.94 0 11.88 0 18 0 C18.020625 2.784375 18.04125 5.56875 18.0625 8.4375 C18.071604 9.31591553 18.08070801 10.19433105 18.09008789 11.09936523 C18.09723091 13.06645974 18.05031893 15.03353621 18 17 C17 18 17 18 13.18359375 18.09765625 C11.60152953 18.09191138 10.01948969 18.07889593 8.4375 18.0625 C4.2609375 18.0315625 4.2609375 18.0315625 0 18 C0 12.06 0 6.12 0 0 Z " fill="#0A0604" transform="translate(322,452)"/>
<path d="M0 0 C5.94 0 11.88 0 18 0 C18 5.94 18 11.88 18 18 C15.215625 18.020625 12.43125 18.04125 9.5625 18.0625 C8.68408447 18.071604 7.80566895 18.08070801 6.90063477 18.09008789 C4.93354026 18.09723091 2.96646379 18.05031893 1 18 C0 17 0 17 -0.09765625 13.18359375 C-0.09191138 11.60152953 -0.07889593 10.01948969 -0.0625 8.4375 C-0.041875 5.653125 -0.02125 2.86875 0 0 Z " fill="#0A0604" transform="translate(287,452)"/>
<path d="M0 0 C5.94 0 11.88 0 18 0 C18 5.61 18 11.22 18 17 C12.06 17 6.12 17 0 17 C0 11.39 0 5.78 0 0 Z " fill="#040201" transform="translate(391,239)"/>
<path d="M0 0 C5.94 0 11.88 0 18 0 C18 5.61 18 11.22 18 17 C12.06 17 6.12 17 0 17 C0 11.39 0 5.78 0 0 Z " fill="#040201" transform="translate(322,239)"/>
<path d="M0 0 C5.94 0 11.88 0 18 0 C18 5.61 18 11.22 18 17 C12.06 17 6.12 17 0 17 C0 11.39 0 5.78 0 0 Z " fill="#040201" transform="translate(287,239)"/>
<path d="M0 0 C5.94 0 11.88 0 18 0 C18 5.61 18 11.22 18 17 C12.06 17 6.12 17 0 17 C0 11.39 0 5.78 0 0 Z " fill="#040201" transform="translate(218,239)"/>
<path d="M0 0 C5.94 0 11.88 0 18 0 C18 5.61 18 11.22 18 17 C12.06 17 6.12 17 0 17 C0 11.39 0 5.78 0 0 Z " fill="#040201" transform="translate(114,239)"/>
<path d="M0 0 C5.28 0.33 10.56 0.66 16 1 C16 6.61 16 12.22 16 18 C13.215625 18.020625 10.43125 18.04125 7.5625 18.0625 C6.68408447 18.071604 5.80566895 18.08070801 4.90063477 18.09008789 C2.93354026 18.09723091 0.96646379 18.05031893 -1 18 C-2 17 -2 17 -2.1875 14.0625 C-2.13736244 9.24929394 -1.02732044 4.68714951 0 0 Z " fill="#040201" transform="translate(46,238)"/>
<path d="M0 0 C5.28 0 10.56 0 16 0 C16 5.61 16 11.22 16 17 C12.101875 17.0309375 12.101875 17.0309375 8.125 17.0625 C7.30789551 17.071604 6.49079102 17.08070801 5.64892578 17.09008789 C0.22222222 17.11111111 0.22222222 17.11111111 -2 16 C-2.2417234 10.31950015 -1.35992692 5.52470311 0 0 Z " fill="#030101" transform="translate(46,452)"/>
<path d="M0 0 C5.61 0 11.22 0 17 0 C17 5.61 17 11.22 17 17 C11.39 17 5.78 17 0 17 C0 11.39 0 5.78 0 0 Z " fill="#020100" transform="translate(426,452)"/>
<path d="M0 0 C5.61 0 11.22 0 17 0 C17 5.61 17 11.22 17 17 C11.39 17 5.78 17 0 17 C0 11.39 0 5.78 0 0 Z " fill="#010100" transform="translate(357,452)"/>
<path d="M0 0 C5.61 0 11.22 0 17 0 C17 5.61 17 11.22 17 17 C11.39 17 5.78 17 0 17 C0 11.39 0 5.78 0 0 Z " fill="#010100" transform="translate(253,452)"/>
<path d="M0 0 C5.61 0 11.22 0 17 0 C17 5.61 17 11.22 17 17 C11.39 17 5.78 17 0 17 C0 11.39 0 5.78 0 0 Z " fill="#020100" transform="translate(184,452)"/>
<path d="M0 0 C5.61 0 11.22 0 17 0 C17 5.61 17 11.22 17 17 C11.39 17 5.78 17 0 17 C0 11.39 0 5.78 0 0 Z " fill="#010100" transform="translate(149,452)"/>
<path d="M0 0 C5.61 0 11.22 0 17 0 C17 5.61 17 11.22 17 17 C11.39 17 5.78 17 0 17 C0 11.39 0 5.78 0 0 Z " fill="#010100" transform="translate(80,452)"/>
<path d="M0 0 C5.61 0 11.22 0 17 0 C17 5.61 17 11.22 17 17 C11.39 17 5.78 17 0 17 C0 11.39 0 5.78 0 0 Z " fill="#000000" transform="translate(426,239)"/>
<path d="M0 0 C5.61 0 11.22 0 17 0 C17 5.61 17 11.22 17 17 C11.39 17 5.78 17 0 17 C0 11.39 0 5.78 0 0 Z " fill="#000000" transform="translate(357,239)"/>
<path d="M0 0 C5.61 0 11.22 0 17 0 C17 5.61 17 11.22 17 17 C11.39 17 5.78 17 0 17 C0 11.39 0 5.78 0 0 Z " fill="#000000" transform="translate(253,239)"/>
<path d="M0 0 C5.61 0 11.22 0 17 0 C17 5.61 17 11.22 17 17 C11.39 17 5.78 17 0 17 C0 11.39 0 5.78 0 0 Z " fill="#000000" transform="translate(184,239)"/>
<path d="M0 0 C5.61 0 11.22 0 17 0 C17 5.61 17 11.22 17 17 C11.39 17 5.78 17 0 17 C0 11.39 0 5.78 0 0 Z " fill="#000000" transform="translate(149,239)"/>
<path d="M0 0 C5.61 0 11.22 0 17 0 C17 5.61 17 11.22 17 17 C11.39 17 5.78 17 0 17 C0 11.39 0 5.78 0 0 Z " fill="#000000" transform="translate(80,239)"/>
</svg>
